<svg width="28" height="27" viewBox="0 0 28 27" fill="none" xmlns="http://www.w3.org/2000/svg">
<path d="M14.0547 0C21.7443 0 28 5.5195 28 12.3047C28 15.171 26.8657 17.9483 24.8013 20.1497C24.3927 21.8344 24.8886 23.6192 26.1191 24.8497C26.6336 25.3642 26.2697 26.25 25.5391 26.25C23.2015 26.25 20.948 25.3344 19.2738 23.7194C17.6171 24.3106 15.8644 24.6094 14.0547 24.6094C6.36508 24.6094 0 19.0899 0 12.3047C0 5.5195 6.36508 0 14.0547 0ZM20.5078 14.7656C21.8648 14.7656 22.9688 13.6617 22.9688 12.3047C22.9688 10.9477 21.8648 9.84375 20.5078 9.84375C19.1508 9.84375 18.0469 10.9477 18.0469 12.3047C18.0469 13.6617 19.1508 14.7656 20.5078 14.7656ZM13.9453 14.7656C15.3023 14.7656 16.4062 13.6617 16.4062 12.3047C16.4062 10.9477 15.3023 9.84375 13.9453 9.84375C12.5883 9.84375 11.4844 10.9477 11.4844 12.3047C11.4844 13.6617 12.5883 14.7656 13.9453 14.7656ZM7.38281 14.7656C8.73983 14.7656 9.84375 13.6617 9.84375 12.3047C9.84375 10.9477 8.73983 9.84375 7.38281 9.84375C6.0258 9.84375 4.92188 10.9477 4.92188 12.3047C4.92188 13.6617 6.0258 14.7656 7.38281 14.7656Z" fill="#22C55E"/>
</svg>
